<?xml version="1.0" encoding="UTF-8"?>
<svg width="752pt" height="752pt" version="1.1" viewBox="0 0 752 752" xmlns="http://www.w3.org/2000/svg">
 <path d="m447.98 281.29c0 6.6289-5.2109 11.84-11.84 11.84h-107.5c-6.6289 0-11.84-5.2109-11.84-11.84s5.2109-11.84 11.84-11.84h107.51c6.625 0 11.832 5.2109 11.832 11.84zm0 94.715c0-6.6289-5.2109-11.84-11.84-11.84h-195.59c-6.6289 0-11.84 5.2109-11.84 11.84s5.2109 11.84 11.84 11.84h195.59c6.6328 0 11.84-5.207 11.84-11.84zm-11.84-59.195h-195.59c-6.6289 0-11.84 5.2109-11.84 11.84 0 6.6289 5.2109 11.84 11.84 11.84h195.59c6.6289 0 11.84-5.2109 11.84-11.84 0-6.6328-5.207-11.84-11.84-11.84zm-195.59 94.715c-6.6289 0-11.84 5.2109-11.84 11.84s5.2109 11.84 11.84 11.84h192.27v-11.367c0-4.2617 0.47266-8.5234 1.4219-12.312zm0 71.039h195.59c1.4219 0 2.8398-0.47266 3.7891-0.94531v-0.94531c-4.7344-6.1562-7.1055-13.262-7.1055-21.312v-0.47266l-93.766-0.003906h-98.504c-6.6289 0-11.84 5.2109-11.84 11.84s5.207 11.84 11.84 11.84zm36.938-307.83c-2.8398 0.94531-5.2109 2.8398-7.1055 4.7344l-85.715 82.402c-2.3672 1.8945-3.7891 4.7344-5.2109 7.5781-1.4219 2.8398-1.8945 5.6836-1.8945 8.9961v251c0 27.941 22.258 50.199 50.199 50.199h154.39v-23.68l-154.39 0.003907c-14.68 0-26.52-11.84-26.52-26.52v-244.37h42.148c27.469 0 50.199-22.73 50.199-50.199v-38.359h157.23c14.68 0 26.52 11.84 26.52 26.52v150.12c2.3672-0.47266 4.7344-0.47266 7.1055-0.47266h7.5781c3.3164 0 6.1562 0.47266 8.9961 0.94531v-150.6c0-27.941-22.258-50.199-50.199-50.199h-164.81c-2.8398 0-5.6797 0.47266-8.5234 1.8945zm117.92 351.87c5.6836-4.7344 10.891-8.5234 16.574-12.312-1.4219-4.7344-6.1562-8.0508-10.891-8.0508l-161.49-0.003906c-6.6289 0-11.84 5.2109-11.84 11.84 0 6.6289 5.2109 11.84 11.84 11.84h152.49c0.94922-1.418 1.8945-2.3672 3.3164-3.3125zm121.24-19.418v-34.57c4.2617-2.8398 7.1055-7.5781 7.1055-13.262v-35.52c0-17.523-14.207-32.203-32.203-32.203h-7.5781c-17.523 0-32.203 14.207-32.203 32.203v35.52c0 5.6836 2.8398 10.418 7.1055 13.262v34.57c0 0.47266-0.47266 0.94531-0.94531 1.4219-4.7344 2.3672-28.414 14.207-50.672 32.676-3.7891 3.3164-6.1562 8.0508-6.1562 13.262v24.625h173.33v-24.625c0-5.2109-2.3672-9.9453-6.1562-13.262-22.258-17.996-45.938-30.309-50.672-32.676-0.48047-0.47656-0.95312-0.94922-0.95312-1.4219z" fill="#fff"/>
</svg>
