<svg id="Camada_1" data-name="Camada 1" xmlns="http://www.w3.org/2000/svg" viewBox="0 0 1194.46 335"><defs><style>.cls-1{fill:#fff;}.cls-2{fill:#772ce8;}</style></defs><title>logo</title><path class="cls-1" d="M541.37,191.42c-11.07,1.15-24.62-4.3-28.2-19a27.45,27.45,0,0,1-.71-6.57V81.7h-40v94.5c1.45,11.37,4.59,24.79,16.86,37.65,13.09,13.39,31,17.52,53.21,12.27a16.83,16.83,0,0,0,8.46-4.89l12.47-13.3V225.7h40V81.7h-40v86.5C562.94,183.71,551.24,190.4,541.37,191.42Z"/><path class="cls-1" d="M347.84,80.65a26,26,0,0,0-12.53,6.61c-14,13.39-23.21,23.94-28.93,33.2-17.61,27-14.23,47.46-7.95,65.57,9.19,22.31,25.89,36,49.63,40.68,8.77,1.77,16.59,2.22,23.24,1.33a27.53,27.53,0,0,0,16.36-8.59l10.8-11.52V279.7h39V81.7h-39V93.31l-.83-.74C384.11,80.51,367.36,76.5,347.84,80.65Zm43.68,48.44a43.81,43.81,0,0,1,6.78,41.71c-3.8,10.8-12.72,18.82-23.27,20.92a30.64,30.64,0,0,1-6,.59c-13,0-25.84-8.08-33.32-21.47-7-12.53-9.42-31.38,4.83-46.75a27.66,27.66,0,0,1,17-8.58C370.89,113.89,383.3,118.84,391.52,129.09Z"/><rect class="cls-1" x="795.46" y="81.7" width="40" height="144"/><path class="cls-1" d="M732.74,84.64c-19-7.68-36.84-8-54.51-1-16,14.82-27.45,28.17-35.07,40.78-1,1.68-2.11,3.32-3.18,4.91l-.52.79c-8.07,12.13-9.15,28.29-3.4,50.86a35.14,35.14,0,0,0,4.36,10c19.64,31.08,45.69,42.09,84.46,35.7,14.86-4,26.16-10.1,34.45-18.58l-16.52-28.19c-15.94,11.78-33.62,15.74-48.58,10.85-11.24-3.67-19.53-11.85-22.75-22.44l-.2-.64h71.46L770.43,137C766.85,112.82,754.16,95.19,732.74,84.64ZM671.33,138.7l.14-.62a32.54,32.54,0,0,1,31-25.18c11.55-.25,25.74,6.24,31,25.16l.18.64Z"/><rect class="cls-1" x="790.46" y="24.7" width="49" height="41"/><rect class="cls-1" x="224.46" y="81.7" width="40" height="144"/><path class="cls-1" d="M143.86,134.69c-9.44-1.77-14.47-5.51-15.4-11.42,0-8.66,5.28-12.48,10.22-13.19,6.57-1,14.68,3.09,17.65,12.62h36.14C192.76,109,187,97,176.22,89c-14.11-10.51-34.51-12.45-56-5.33L94.39,114.46a44,44,0,0,0-3.31,20.4,27.17,27.17,0,0,0,1.76,8.57c5.63,14.24,20.41,23.16,45.2,27.27,5.64.84,9.88,2.38,13,4.73a12.79,12.79,0,0,1,4.9,8.74,12.64,12.64,0,0,1-2.86,9.52,13.5,13.5,0,0,1-14.72,3.76,14.25,14.25,0,0,1-9.83-12.75h-39c.41,8.12,3,22.67,15.73,32.69s31.58,12.66,56.13,7.83a7.18,7.18,0,0,0,3.91-2.18l17.09-18.72a51.5,51.5,0,0,0,6.27-8.26,38.64,38.64,0,0,0,5.85-19.87c-.55-9.6-3.54-17.58-8.88-23.66C178.72,144.92,165.07,139.08,143.86,134.69Z"/><rect class="cls-1" x="219.46" y="24.7" width="49" height="41"/><path class="cls-1" d="M1024.84,80.65a26,26,0,0,0-12.53,6.61c-14,13.38-23.21,23.93-28.93,33.2-17.61,27-14.23,47.46-8,65.57,9.19,22.31,25.89,36,49.63,40.68,8.77,1.77,16.6,2.22,23.24,1.33a27.53,27.53,0,0,0,16.36-8.59l10.8-11.52V225.7h39V81.7h-39V93.31l-.83-.74a51.63,51.63,0,0,0-35.41-13.5A69.68,69.68,0,0,0,1024.84,80.65Zm43.68,48.45a43.76,43.76,0,0,1,6.78,41.7c-3.8,10.8-12.72,18.82-23.27,20.92a30.64,30.64,0,0,1-6,.59c-13,0-25.84-8.08-33.32-21.47-7-12.53-9.42-31.38,4.83-46.75a27.66,27.66,0,0,1,17-8.58C1047.88,113.89,1060.3,118.84,1068.52,129.1Z"/><path class="cls-1" d="M910.46,81.7h-39v144h39V153.17a54.2,54.2,0,0,1,1.22-11.78,37.5,37.5,0,0,1,2.94-8.64,18.62,18.62,0,0,1,16.64-10h26.2v-41h-23.3l-23.7,22.67Z"/><rect class="cls-2" x="1149.46" y="181.7" width="45" height="44"/><rect class="cls-2" x="1149.46" y="261.33" width="45" height="73.67"/><rect class="cls-2" width="41.11" height="335"/><rect class="cls-2" y="293.89" width="795.46" height="41.11"/><rect class="cls-2" x="1114.46" y="293.89" width="80" height="41.11"/><path class="cls-1" d="M959.35,278.7c-13.83.89-22.7,9.05-25,23a34.63,34.63,0,0,0,0,11.22,27,27,0,0,0,8,15.47c6.88,6,17.5,7.85,27,4.65,8.17-2.73,13.79-8.66,15.45-16.27h-7.74a20.08,20.08,0,0,1-9.39,9.63A17.9,17.9,0,0,1,956,327.57a18.5,18.5,0,0,1-14.47-18.4V309H986c.21-9.68-2.36-17.33-7.63-22.73A26.53,26.53,0,0,0,959.35,278.7Zm-17.81,24,0-.15c1.49-11.61,10.7-16.88,18.67-16.88h.08a17.44,17.44,0,0,1,11.4,4.17A19.45,19.45,0,0,1,978,302.54l0,.15Z"/><path class="cls-1" d="M911.93,289a21.89,21.89,0,0,0-13.69-9.8,24.22,24.22,0,0,0-29,15.74,34.71,34.71,0,0,0,2.38,28.68c4.16,7.71,12.47,12,22.21,11.35,8.4-.51,15.72-4.61,17.81-10l.27-.68v8.87h7.44V254.29h-7.44l.28,35.13Zm-4.39,32.31a17.54,17.54,0,0,1-14.25,6.65,16.81,16.81,0,0,1-13.82-6.65,25.48,25.48,0,0,1,0-29.18,16.81,16.81,0,0,1,13.82-6.65,17.54,17.54,0,0,1,14.25,6.65,24.82,24.82,0,0,1,0,29.18Z"/><polygon class="cls-1" points="998.7 280.08 990.17 280.08 1012.67 333.58 1020.49 333.58 1042.71 280.08 1034.46 280.08 1016.44 324.16 998.7 280.08"/></svg>