<svg height='300px' width='300px'  fill="#151718" xmlns="http://www.w3.org/2000/svg" xmlns:xlink="http://www.w3.org/1999/xlink" version="1.1" x="0px" y="0px" viewBox="0 0 550 550" enable-background="new 0 0 550 550" xml:space="preserve"><g><path d="M194.964,295.455l39.545-45.85c3.607-4.183,3.141-10.497-1.042-14.104c-4.183-3.606-10.497-3.141-14.104,1.041   l-45.169,52.371c-3.233,3.748-3.237,9.298-0.009,13.052l45.169,52.526c1.978,2.3,4.774,3.479,7.586,3.479   c2.309,0,4.628-0.795,6.516-2.418c4.188-3.601,4.663-9.915,1.062-14.103L194.964,295.455z"></path><path d="M329.899,236.554c-3.602-4.188-9.917-4.662-14.102-1.062c-4.188,3.601-4.663,9.915-1.062,14.103l39.554,45.995   l-39.545,45.851c-3.607,4.183-3.141,10.497,1.042,14.104c1.889,1.63,4.213,2.428,6.527,2.428c2.808,0,5.599-1.176,7.577-3.469   l45.17-52.372c3.233-3.749,3.237-9.298,0.009-13.052L329.899,236.554z"></path><path d="M295.138,222.841c-5.292-1.582-10.864,1.423-12.447,6.714l-37.754,126.204c-1.583,5.291,1.423,10.864,6.714,12.446   c0.956,0.286,1.921,0.423,2.87,0.423c4.304,0,8.28-2.802,9.577-7.137l37.754-126.204   C303.436,229.996,300.429,224.423,295.138,222.841z"></path><path d="M516,87H34C20.215,87,9,98.215,9,112v327c0,13.785,11.215,25,25,25h482c13.785,0,25-11.215,25-25V112   C541,98.215,529.785,87,516,87z M34,107h482c2.757,0,5,2.243,5,5v38H29v-38C29,109.243,31.243,107,34,107z M516,444H34   c-2.757,0-5-2.243-5-5V170h492v269C521,441.757,518.757,444,516,444z"></path><circle cx="78.208" cy="127.812" r="10"></circle><circle cx="114.208" cy="127.812" r="10"></circle><circle cx="150.208" cy="127.812" r="10"></circle></g></svg>